HIERARCHY
ROOT Hips
{
	OFFSET 0.000000 0.000000 0.000000
	CHANNELS 6 Xposition Yposition Zposition Zrotation Yrotation Xrotation 
	JOINT LHipJoint
	{
		OFFSET 0.000000 0.000000 0.000000
		CHANNELS 3 Zrotation Yrotation Xrotation
		JOINT LeftUpLeg
		{
			OFFSET 1.363060 -1.794630 0.839290
			CHANNELS 3 Zrotation Yrotation Xrotation
			JOINT LeftLeg
			{
				OFFSET 2.448110 -6.726130 0.000000
				CHANNELS 3 Zrotation Yrotation Xrotation
				JOINT LeftFoot
				{
					OFFSET 2.562200 -7.039590 0.000000
					CHANNELS 3 Zrotation Yrotation Xrotation
					JOINT LeftToeBase
					{
						OFFSET 0.157640 -0.433110 2.322550
						CHANNELS 3 Zrotation Yrotation Xrotation
						End Site
						{
							OFFSET 0.000000 0.000000 0.000000
						}
					}
				}
			}
		}
	}
	JOINT RHipJoint
	{
		OFFSET 0.000000 0.000000 0.000000
		CHANNELS 3 Zrotation Yrotation Xrotation
		JOINT RightUpLeg
		{
			OFFSET -1.305520 -1.794630 0.839290
			CHANNELS 3 Zrotation Yrotation Xrotation
			JOINT RightLeg
			{
				OFFSET -2.542530 -6.985550 0.000000
				CHANNELS 3 Zrotation Yrotation Xrotation
				JOINT RightFoot
				{
					OFFSET -2.568260 -7.056230 0.000000
					CHANNELS 3 Zrotation Yrotation Xrotation
					JOINT RightToeBase
					{
						OFFSET -0.164730 -0.452590 2.363150
						CHANNELS 3 Zrotation Yrotation Xrotation
						End Site
						{
							OFFSET 0.000000 0.000000 0.000000
						}
					}
				}
			}
		}
	}
}
MOTION
Frames: 30
Frame Time: 0.008333
-1.569557 16.647258 0.304489 -158.441200 76.717362 -147.268785 -9.412396 0.326943 -0.994049 -24.222624 13.932030 -43.467228 -2.863957 0.312825 23.264922 3.654011 16.327283 -14.069963 -1.344801 0.000000 -1.763100 10.652070 -3.773828 -2.943691 0.288265 -17.920375 -9.191147 0.556745 -3.310026 43.666124 0.106802 11.424468 17.859586 4.762800 -0.000000 -88.839200
-1.439827 16.650850 0.237447 -160.037309 76.185671 -148.761458 -9.419603 0.375792 -0.976920 -24.179701 13.269381 -43.109488 -2.802539 0.394281 24.173565 3.678276 16.401627 -14.382108 -1.459800 0.000000 -0.464100 10.755150 -3.592086 -2.937204 -0.105870 -17.477972 -10.608060 0.295239 -3.440456 46.535100 -0.056325 11.042465 19.401808 4.964900 -0.000001 -86.646000
-1.316287 16.656801 0.167171 -161.423288 75.569534 -150.072349 -9.439990 0.406528 -0.971111 -24.076962 12.603082 -42.592337 -2.738991 0.451924 24.890736 3.703448 16.483612 -14.724336 178.411700 -0.000000 -0.472601 10.830020 -3.396792 -2.952094 -0.397193 -16.966886 -11.967673 0.048333 -3.563862 49.315488 -0.233310 10.080013 20.555009 4.820600 -0.000000 -84.303799
-1.198213 16.665279 0.093471 -162.574077 74.883355 -151.181564 -9.472933 0.420050 -0.977252 -23.916628 11.954749 -41.910906 -2.676217 0.484227 25.398548 3.726934 16.561261 -15.093106 178.271301 0.000000 -1.101400 10.880038 -3.194269 -2.984612 -0.596169 -16.394797 -13.259590 -0.185718 -3.682366 51.981439 -0.424605 8.542699 21.290824 4.313100 -0.000000 -81.862200
-1.084730 16.676498 0.016335 -163.491897 74.142563 -152.091574 -9.517568 0.418185 -0.994404 -23.704472 11.340298 -41.073318 -2.616543 0.491377 25.689863 3.746214 16.623300 -15.478483 178.123200 0.000000 -1.475900 10.908185 -2.989356 -3.028330 -0.713754 -15.764151 -14.478461 -0.407723 -3.795686 54.500587 -0.633071 6.480636 21.611857 3.473899 0.000000 -79.506900
-0.974896 16.690534 -0.064145 -164.199143 73.362578 -152.820064 -9.572689 0.403719 -1.020391 -23.449989 10.769492 -40.098956 -2.561589 0.475229 25.769500 3.759045 16.659974 -15.865908 177.973800 0.000000 -1.657800 10.917195 -2.785772 -3.074886 -0.762553 -15.072259 -15.624695 -0.616971 -3.902330 56.842979 -0.860774 3.993411 21.536985 2.377500 0.000000 -77.207000
-0.867750 16.707541 -0.147748 -164.728944 72.556184 -153.391609 -9.636922 0.379803 -1.052168 -23.163508 10.245953 -39.014124 -2.512155 0.438687 25.650690 3.763435 16.663210 -16.237088 177.830800 -0.000000 -1.707799 10.909460 -2.586284 -3.114978 -0.755887 -14.313549 -16.701395 -0.811394 -3.999690 58.976153 -1.108072 1.214579 21.113586 1.125500 -0.000000 -75.070000
-0.762436 16.727423 -0.234143 -165.119156 71.733074 -153.833676 -9.708677 0.349883 -1.085733 -22.855541 9.767131 -37.850786 -2.468350 0.385559 25.355901 3.757845 16.626764 -16.573854 177.702499 -0.000001 -1.686600 10.887370 -2.393434 -3.139818 -0.708473 -13.483675 -17.717070 -0.988538 -4.085831 60.880570 -1.369997 -1.690343 20.391286 -0.167101 -0.000000 -72.920099
-0.658201 16.750033 -0.322971 -165.406151 70.898599 -154.170137 -9.786243 0.317135 -1.116820 -22.535694 9.325167 -36.642766 -2.429696 0.319947 24.913522 3.741348 16.546889 -16.860096 177.596000 -0.000000 -1.645000 10.853025 -2.209202 -3.141282 -0.634717 -12.579000 -18.681787 -1.146113 -4.158517 62.537958 -1.638216 -4.555438 19.447949 -1.394401 0.000000 -70.794300
-0.554403 16.775064 -0.413772 -165.622818 70.053687 -154.421827 -9.868077 0.284324 -1.141172 -22.211507 8.908275 -35.422032 -2.395358 0.245933 24.354923 3.713509 16.421825 -17.083424 177.516800 0.000000 -1.621000 10.808128 -2.035030 -3.113083 -0.548709 -11.598845 -19.606680 -1.282626 -4.215916 63.938348 -1.900736 -7.226850 18.372194 -2.473600 -0.000001 -68.709000
-0.450585 16.802123 -0.506182 -165.795183 69.195756 -154.603722 -9.952865 0.253508 -1.154665 -21.887753 8.501750 -34.216278 -2.364224 0.167175 23.712167 3.674582 16.252275 -17.237291 177.467800 -0.000000 -1.636600 10.753866 -1.871730 -3.051011 -0.462616 -10.545918 -20.503782 -1.397530 -4.256609 65.079233 -2.144272 -9.582386 17.256612 -3.355300 0.000000 -66.775399
-0.346477 16.830627 -0.599774 -165.945832 68.319034 -154.731490 -10.039533 0.226586 -1.153224 -21.567279 8.090170 -33.045403 -2.335212 0.086685 23.014035 3.625389 16.041137 -17.320980 177.449101 -0.000000 -1.696200 10.691432 -1.720106 -2.954577 -0.389206 -9.432364 -21.384547 -1.491512 -4.281096 65.975402 -2.353734 -11.523759 16.152653 -4.011900 -0.000000 -64.814100
-0.241967 16.859981 -0.694262 -166.088357 67.416684 -154.812813 -10.127564 0.203833 -1.134657 -21.249545 7.659052 -31.923336 -2.307229 0.006801 22.286557 3.567138 15.792167 -17.340551 177.458000 -0.000000 -1.792100 10.620754 -1.579113 -2.824449 -0.336302 -8.267009 -22.256049 -1.565291 -4.288408 66.630229 -2.521148 -13.016935 15.145801 -4.457900 -0.000000 -63.097000
-0.137036 16.889481 -0.789382 -166.232585 66.481460 -154.857128 -10.216810 0.185466 -1.097218 -20.932555 7.196625 -30.853750 -2.279309 -0.071043 21.548123 3.501357 15.510554 -17.306155 177.490000 -0.000001 -1.905600 10.541953 -1.448042 -2.664599 -0.312036 -7.067237 -23.122875 -1.620224 -4.279630 67.060569 -2.640135 -14.051966 14.263144 -4.713900 -0.000000 -61.569900
-0.031893 16.918411 -0.885020 -166.382517 65.507403 -154.870691 -10.307608 0.170763 -1.041012 -20.612754 6.695130 -29.834275 -2.250650 -0.146008 20.811898 3.429661 15.201519 -17.231880 177.539100 0.000001 -2.013700 10.454586 -1.325382 -2.480320 -0.321761 -5.849267 -23.985337 -1.657648 -4.255705 67.279476 -2.710505 -14.660364 13.525574 -4.814900 -0.000000 -60.293500
0.073275 16.946158 -0.981026 -166.542453 64.490647 -154.864120 -10.400328 0.158983 -0.966973 -20.286245 6.151289 -28.855372 -2.220743 -0.217946 20.083604 3.353488 14.869609 -17.132573 177.599200 -0.000000 -2.091900 10.358491 -1.209783 -2.278056 -0.369471 -4.632151 -24.839875 -1.678867 -4.218266 67.300591 -2.735942 -14.897121 12.924627 -4.795200 -0.000000 -59.207300
0.178192 16.972108 -1.077423 -166.710100 63.429653 -154.842442 -10.495663 0.148977 -0.877606 -19.949726 5.567064 -27.904897 -2.189238 -0.287045 19.364895 3.274007 14.518344 -17.022695 177.664700 0.000000 -2.119400 10.253217 -1.099811 -2.064207 -0.456515 -3.431860 -25.680117 -1.684999 -4.168737 67.133388 -2.724473 -14.840955 12.447116 -4.691700 -0.000000 -58.322300
0.282614 16.995833 -1.174270 -166.884073 62.325405 -154.813278 -10.594025 0.139817 -0.775855 -19.601386 4.947886 -26.969659 -2.156087 -0.353694 18.653991 3.191990 14.149758 -16.914246 177.731100 0.000000 -2.080800 10.138697 -0.994295 -1.844745 -0.583137 -2.263528 -26.497780 -1.677098 -4.108657 66.785938 -2.686257 -14.580369 12.067181 -4.537200 -0.000000 -57.591900
0.386350 17.016969 -1.271466 -167.065898 61.182090 -154.785344 -10.695293 0.130836 -0.665409 -19.241581 4.302318 -26.038532 -2.121703 -0.418199 17.948434 3.107822 13.764366 -16.816238 177.795500 -0.000000 -1.968600 10.015202 -0.891890 -1.624715 -0.747788 -1.138967 -27.285369 -1.656286 -4.039277 66.263914 -2.632789 -14.208076 11.760116 -4.362900 0.000001 -57.016300
0.489310 17.035412 -1.368997 -167.256232 60.004393 -154.767054 -10.799009 0.121958 -0.549460 -18.872263 3.640809 -25.102637 -2.086664 -0.480775 17.245612 3.021423 13.361191 -16.732928 177.856800 0.000000 -1.784900 9.883531 -0.792160 -1.407626 -0.947625 -0.067617 -28.034400 -1.623667 -3.961794 65.572496 -2.574634 -13.807148 11.496848 -4.192900 -0.000001 -56.533300
0.591429 17.051081 -1.466927 -167.452346 58.797105 -154.760609 -10.904453 0.113338 -0.430893 -18.497456 2.973184 -24.158082 -2.051639 -0.541388 16.545595 2.932477 12.938190 -16.665557 177.914900 0.000001 -1.541201 9.744597 -0.694814 -1.195556 -1.179084 0.944898 -28.739321 -1.580355 -3.877015 64.715718 -2.521000 -13.447567 11.256198 -4.047400 0.000000 -56.132300
0.692888 17.064135 -1.564985 -167.661234 57.566766 -154.775210 -11.009830 0.105827 -0.312184 -18.122812 2.308791 -23.205040 -2.017836 -0.599664 15.850917 2.840442 12.492539 -16.611754 177.971200 -0.000000 -1.256700 9.600241 -0.599582 -0.989275 -1.438797 1.895660 -29.396762 -1.527727 -3.785686 63.698489 -2.478544 -13.177767 11.020303 -3.938800 0.000000 -55.793600
0.793796 17.074716 -1.663117 -167.882753 56.317682 -154.811176 -11.113578 0.100305 -0.194816 -17.753912 1.654254 -22.247514 -1.986158 -0.655101 15.166673 2.744781 12.021503 -16.567304 178.027600 0.000000 -0.955700 9.452223 -0.506746 -0.788381 -1.723524 2.784600 -30.005741 -1.467034 -3.688374 62.526581 -2.450873 -13.021896 10.776923 -3.872300 0.000000 -55.494200
0.894366 17.083118 -1.761152 -168.120580 55.054159 -154.870747 -11.213715 0.097875 -0.079763 -17.396497 1.014109 -21.292005 -1.957580 -0.707003 14.500194 2.645205 11.523681 -16.526881 178.085800 0.000000 -0.663200 9.302692 -0.416555 -0.591773 -2.030809 3.613559 -30.567750 -1.399595 -3.585630 61.207499 -2.438764 -12.981320 10.518072 -3.845800 0.000000 -55.207499
0.994814 17.089611 -1.858956 -168.375758 53.779013 -154.952161 -11.308479 0.099458 0.032726 -17.055090 0.389987 -20.346274 -1.932759 -0.754753 13.859199 2.541755 10.999287 -16.485266 178.147600 0.000000 -0.400300 9.153658 -0.329423 -0.397906 -2.358592 4.385823 -31.087083 -1.326544 -3.477988 59.750229 -2.440246 -13.036683 10.239860 -3.851200 0.000000 -54.892301
1.095331 17.094426 -1.956393 -168.649449 52.495115 -155.052793 -11.396388 0.105724 0.142660 -16.732573 -0.218357 -19.418137 -1.912084 -0.797724 13.252262 2.434962 10.450951 -16.438761 178.213700 -0.000000 -0.180700 9.006906 -0.245682 -0.205099 -2.705419 5.105986 -31.569494 -1.249044 -3.365838 58.164820 -2.451839 -13.157490 9.946547 -3.878500 -0.000000 -54.544400
1.196080 17.097824 -2.053370 -168.940692 51.204986 -155.168137 -11.476418 0.116941 0.250339 -16.430063 -0.812904 -18.514107 -1.895567 -0.835552 12.685977 2.325788 9.883398 -16.385311 178.284100 0.000000 -0.008800 8.863832 -0.165821 -0.011940 -3.069654 5.778634 -32.021865 -1.167979 -3.249655 56.462398 -2.468601 -13.304940 9.643300 -3.915400 0.000000 -54.130800
1.297110 17.099975 -2.149926 -169.245823 49.911643 -155.292017 -11.548178 0.132952 0.355942 -16.146975 -1.395319 -17.639122 -1.882839 -0.868087 12.165334 2.215680 9.303806 -16.325432 -1.642100 0.000000 -0.121300 8.725280 -0.090296 0.182761 -3.449149 6.408170 -32.451983 -1.084065 -3.129742 54.653529 -2.485557 -13.442450 9.341077 -3.951600 0.000000 -53.649600
1.398392 17.100968 -2.246077 -169.560752 48.619453 -155.418903 -11.611771 0.153262 0.459130 -15.881268 -1.966333 -16.795250 -1.873311 -0.895372 11.692930 2.106353 8.720780 -16.261724 -1.566500 0.000000 -0.223599 8.591648 -0.019630 0.379413 -3.840714 6.998000 -32.866031 -0.997717 -3.006387 52.747653 -2.498040 -13.538903 9.051123 -3.979600 -0.000000 -53.092900
1.499765 17.100825 -2.342028 -169.877564 47.333827 -155.541649 -11.668001 0.176993 0.559357 -15.630332 -2.525242 -15.982815 -1.866129 -0.917718 11.269148 1.999589 8.143357 -16.198503 -1.491099 0.000000 -0.319700 8.462708 0.045585 0.578188 -4.240374 7.550161 -33.269712 -0.909115 -2.879539 50.750845 -2.502843 -13.575831 8.790088 -3.996800 0.000001 -52.506800
